<mxfile host="Electron" modified="2023-06-23T12:26:43.790Z" agent="Mozilla/5.0 (Windows NT 10.0; Win64; x64) AppleWebKit/537.36 (KHTML, like Gecko) draw.io/21.5.0 Chrome/112.0.5615.204 Electron/24.5.1 Safari/537.36" etag="jBUKBznn3819w8CfuJig" version="21.5.0" type="device">
  <diagram name="Page-1" id="jOTbS239regMLlkqWPYL">
    <mxGraphModel dx="1450" dy="1871" grid="0" gridSize="10" guides="1" tooltips="1" connect="1" arrows="1" fold="1" page="0" pageScale="1" pageWidth="850" pageHeight="1100" math="0" shadow="0">
      <root>
        <mxCell id="0" />
        <mxCell id="1" parent="0" />
        <mxCell id="r6yLNoG1JKIrol4z2VNO-1" value="" style="rounded=0;whiteSpace=wrap;html=1;fontSize=16;" parent="1" vertex="1">
          <mxGeometry x="-176" y="-1006" width="714" height="581" as="geometry" />
        </mxCell>
        <mxCell id="r6yLNoG1JKIrol4z2VNO-3" value="" style="rounded=1;whiteSpace=wrap;html=1;fontSize=16;fillColor=#ffe6cc;strokeColor=#d79b00;" parent="1" vertex="1">
          <mxGeometry x="12" y="-775" width="485" height="100" as="geometry" />
        </mxCell>
        <mxCell id="r6yLNoG1JKIrol4z2VNO-4" value="Application Layer" style="rounded=1;whiteSpace=wrap;html=1;fontSize=16;fillColor=#d5e8d4;strokeColor=#82b366;" parent="1" vertex="1">
          <mxGeometry x="12" y="-888" width="485" height="98" as="geometry" />
        </mxCell>
        <mxCell id="r6yLNoG1JKIrol4z2VNO-5" value="Library" style="rounded=1;whiteSpace=wrap;html=1;fontSize=16;fillColor=#f5f5f5;fontColor=#333333;strokeColor=#666666;" parent="1" vertex="1">
          <mxGeometry x="-105" y="-888" width="95" height="400" as="geometry" />
        </mxCell>
        <mxCell id="r6yLNoG1JKIrol4z2VNO-6" value="&lt;font style=&quot;font-size: 18px;&quot;&gt;System Modules&lt;/font&gt;" style="text;html=1;strokeColor=none;fillColor=none;align=center;verticalAlign=middle;whiteSpace=wrap;rounded=0;fontSize=16;" parent="1" vertex="1">
          <mxGeometry x="53" y="-974" width="250" height="30" as="geometry" />
        </mxCell>
        <mxCell id="r6yLNoG1JKIrol4z2VNO-7" value="Microcontroller" style="rounded=0;whiteSpace=wrap;html=1;fontSize=16;fillColor=#fad9d5;strokeColor=#ae4132;" parent="1" vertex="1">
          <mxGeometry x="12" y="-548" width="485" height="60" as="geometry" />
        </mxCell>
        <mxCell id="r6yLNoG1JKIrol4z2VNO-8" value="LED" style="rounded=1;whiteSpace=wrap;html=1;fontSize=16;fillColor=#ff9e42;fontColor=#000000;strokeColor=#C73500;" parent="1" vertex="1">
          <mxGeometry x="201" y="-742.5" width="100" height="35" as="geometry" />
        </mxCell>
        <mxCell id="r6yLNoG1JKIrol4z2VNO-9" value="HAL" style="rounded=1;whiteSpace=wrap;html=1;fontSize=16;fillColor=#ff9e42;fontColor=#000000;strokeColor=#C73500;" parent="1" vertex="1">
          <mxGeometry x="474" y="-750" width="120" height="50" as="geometry" />
        </mxCell>
        <mxCell id="r6yLNoG1JKIrol4z2VNO-10" value="BTN" style="rounded=1;whiteSpace=wrap;html=1;fontSize=16;fillColor=#ff9e42;fontColor=#000000;strokeColor=#C73500;" parent="1" vertex="1">
          <mxGeometry x="338" y="-742.5" width="100" height="35" as="geometry" />
        </mxCell>
        <mxCell id="r6yLNoG1JKIrol4z2VNO-16" style="edgeStyle=none;curved=1;rounded=0;orthogonalLoop=1;jettySize=auto;html=1;exitX=0.5;exitY=1;exitDx=0;exitDy=0;fontSize=12;startSize=8;endSize=8;" parent="1" edge="1">
          <mxGeometry relative="1" as="geometry">
            <mxPoint x="251" y="-595" as="sourcePoint" />
            <mxPoint x="251" y="-595" as="targetPoint" />
          </mxGeometry>
        </mxCell>
        <mxCell id="b28eI99juAyYc9XCnCDc-2" value="" style="rounded=1;whiteSpace=wrap;html=1;fontSize=16;fillColor=#dae8fc;strokeColor=#6c8ebf;" vertex="1" parent="1">
          <mxGeometry x="12" y="-661" width="485" height="100" as="geometry" />
        </mxCell>
        <mxCell id="r6yLNoG1JKIrol4z2VNO-12" value="MCAL" style="rounded=1;whiteSpace=wrap;html=1;fontSize=16;fillColor=#1ba1e2;fontColor=#ffffff;strokeColor=#006EAF;" parent="1" vertex="1">
          <mxGeometry x="474" y="-636" width="120" height="50" as="geometry" />
        </mxCell>
        <mxCell id="b28eI99juAyYc9XCnCDc-3" value="GPIO" style="rounded=1;whiteSpace=wrap;html=1;fontSize=16;fillColor=#1ba1e2;fontColor=#ffffff;strokeColor=#006EAF;" vertex="1" parent="1">
          <mxGeometry x="201" y="-628.5" width="236" height="35" as="geometry" />
        </mxCell>
        <mxCell id="b28eI99juAyYc9XCnCDc-4" value="STMR" style="rounded=1;whiteSpace=wrap;html=1;fontSize=16;fillColor=#1ba1e2;fontColor=#ffffff;strokeColor=#006EAF;" vertex="1" parent="1">
          <mxGeometry x="63" y="-628.5" width="100" height="35" as="geometry" />
        </mxCell>
        <mxCell id="b28eI99juAyYc9XCnCDc-5" value="DELAY" style="rounded=1;whiteSpace=wrap;html=1;fontSize=16;fillColor=#ff9e42;fontColor=#000000;strokeColor=#C73500;" vertex="1" parent="1">
          <mxGeometry x="63" y="-742.5" width="100" height="35" as="geometry" />
        </mxCell>
      </root>
    </mxGraphModel>
  </diagram>
</mxfile>
